<?xml version="1.0" encoding="UTF-8"?>
<svg width="287px" height="47px" viewBox="0 0 287 47" version="1.1" xmlns="http://www.w3.org/2000/svg" xmlns:xlink="http://www.w3.org/1999/xlink">
    <!-- Generator: Sketch 48.2 (47327) - http://www.bohemiancoding.com/sketch -->
    <title>logo-sonacol-grande</title>
    <desc>Created with Sketch.</desc>
    <defs></defs>
    <g id="Page-1" stroke="none" stroke-width="1" fill="none" fill-rule="evenodd">
        <g id="logo-sonacol-grande" fill-rule="nonzero">
            <path d="M230.041274,29.8454521 L242.265333,29.8454521 C241.719748,31.1736045 241.832446,31.8213553 243.537663,31.9667043 C245.850607,32.1657692 246.577352,29.8549313 246.577352,29.8549313 L259.214286,29.8454521 L258.815103,30.7965398 C257.361613,32.9104193 252.519807,36.9201548 242.61396,36.7210899 C234.162655,36.5515161 228.284448,34.2122404 229.668423,30.7786345 L230.041274,29.8454521 Z M232.970583,22.4496124 L245.46638,22.4496124 C244.354145,25.1469942 243.265081,27.7264117 242.744774,28.7986236 L242.587839,29.1293451 L230.323757,29.1293451 C230.984147,27.445193 231.948927,24.9774204 232.970583,22.4496124 Z M249.700248,22.4496124 L262.253975,22.4496124 C261.203881,25.0585209 260.168533,27.5568379 259.51341,29.1293451 L246.883849,29.1293451 L249.700248,22.4496124 Z M236.341204,14.580546 L248.670588,14.580546 C248.252446,15.6232668 247.01698,18.6829678 245.756236,21.7458285 L233.255172,21.7458285 C234.345289,19.062139 235.473323,16.3868755 236.341204,14.580546 Z M252.942267,14.580546 L265.271651,14.580546 C264.6239,16.4511239 263.588552,19.1148016 262.535299,21.7458285 L249.996318,21.7458285 C251.46034,18.2585067 252.853794,14.9144273 252.914883,14.667966 L252.942267,14.580546 Z M265.526854,13.8286284 L253.1585,13.8286284 C253.328074,13.0365819 253.243814,12.122358 251.595472,12.1581686 C249.929225,12.1960857 249.223546,13.2472326 248.959179,13.8286284 L236.715109,13.8286284 C237.085854,13.1060966 237.390244,12.6068545 237.594575,12.4214819 C238.915355,11.2344654 242.744984,6.8771563 253.841008,7.5364929 C260.972587,7.5364929 266.651729,9.38495252 265.859682,12.6869018 C265.790168,12.9818127 265.675363,13.3694099 265.526854,13.8286284 Z M216.197734,24.9618323 C215.052847,27.6750129 214.107026,29.7172711 214.107026,29.7172711 C214.107026,29.7172711 213.380281,32.028109 211.070496,31.8300974 C208.96399,31.649991 209.286285,30.7073293 210.276343,28.6619113 C211.564472,26.0003401 216.351509,14.0680329 216.351509,14.0680329 C216.351509,14.0680329 216.872869,12.1690171 219.125778,12.0215616 C221.569326,12.0215616 220.579268,14.0016779 220.447611,14.5293579 C220.408641,14.6799731 219.879907,15.9744214 219.14263,17.7481001 L231.621576,17.7459936 C232.530533,15.4067179 233.159326,13.5108619 233.388935,12.5502948 C234.183088,9.24939882 228.596632,7.50626453 221.370261,7.40093919 C210.307941,7.42832378 206.446714,11.0978584 205.125935,12.284875 C203.805155,13.473998 198.376687,27.7318886 197.201256,30.6420276 C195.814122,34.0745802 201.696542,36.904672 210.144687,36.5834297 C224.726979,36.0304717 226.275262,30.4829863 226.275262,30.4829863 C226.275262,30.4829863 227.234776,28.4754854 228.679839,24.9807908 L216.197734,24.9618323 Z M189.387696,7.40515221 C178.557092,7.20714058 175.122433,10.4427349 173.471985,11.499148 C171.820484,12.5545078 170.168983,17.7049167 170.168983,17.7049167 C170.168983,17.7049167 179.283837,17.7049167 182.717443,17.5743133 C183.575844,15.3287771 183.971868,12.0931829 187.075805,12.2248395 C190.44095,12.368082 187.814136,15.3824931 186.34906,16.8475685 C183.707501,19.4870214 173.720553,19.0931046 169.443291,22.4593023 C166.339353,24.9007436 164.160172,32.6927118 164.09487,33.5521666 C164.028516,34.4116213 164.820562,36.1284243 170.434402,36.4570393 C176.048243,36.7867076 180.20754,33.4858116 180.20754,33.4858116 L179.943174,36.1947792 L192.754947,36.1947792 C192.754947,36.1947792 192.771799,35.5280699 193.018261,33.0897884 C193.350035,29.8552473 201.142004,14.9327539 201.207305,12.6208628 C201.27366,10.3089717 197.717877,7.55682069 189.387696,7.40515221 Z M181.659977,30.3176255 C181.265007,31.1096721 180.07483,31.7711152 179.283837,31.7711152 C178.489684,31.7711152 177.434324,31.7026537 177.234206,31.0433171 C177.038301,30.3829273 178.790914,26.0045531 179.876819,24.5047203 C181.265007,22.5920122 184.763914,22.5920122 184.763914,22.5920122 C184.763914,22.5920122 182.057053,29.5245258 181.659977,30.3176255 Z M141.970125,7.53638757 L130.347475,36.0627013 L142.499912,36.0627013 L151.877026,13.8748662 C151.877026,13.8748662 152.66802,12.4877316 154.781899,12.8184531 C155.568679,12.9416838 156.696714,13.1481214 155.706655,15.062936 C155.02836,16.3752897 146.990984,36.1954112 146.990984,36.1954112 L159.272971,36.1954112 L169.707552,10.9046918 C169.707552,10.9046918 170.367942,6.87705098 162.509619,7.33732269 C157.077991,7.65751171 153.857143,9.64921379 153.857143,9.64921379 L154.650242,7.53638757 L141.970125,7.53638757 Z M124.669702,7.27202098 C113.574731,6.61163113 109.745102,10.9699935 108.423269,12.1580633 C107.102489,13.3471863 101.674021,27.6050769 100.498591,30.5141626 C99.1125093,33.949875 104.989663,36.290204 113.442021,36.456618 C123.348922,36.6546296 129.291377,31.1756057 129.291377,31.1756057 C129.291377,31.1756057 135.896329,15.7243791 136.687322,12.4213766 C137.480422,9.12153386 131.80128,7.27202098 124.669702,7.27202098 Z M123.743892,14.4025462 C123.612235,14.9323326 117.40436,29.5894062 117.40436,29.5894062 C117.40436,29.5894062 116.677615,31.9023505 114.366778,31.7032856 C112.262377,31.5221261 112.584673,30.5805176 113.574731,28.5340463 C114.861807,25.8756349 119.649896,13.9412212 119.649896,13.9412212 C119.649896,13.9412212 119.649896,11.8936967 122.424166,11.8936967 C124.86666,11.8936967 123.877655,13.8748662 123.743892,14.4025462 Z M69.9888956,25.1007564 L82.3372379,25.1007564 C82.3372379,25.1007564 79.8610393,30.1511062 80.1917608,30.877851 C80.4645534,31.4803119 81.9412146,32.3966423 83.9234374,31.3075784 C84.8292353,30.8083363 87.6214099,26.1561162 84.8471406,24.9680465 C82.0749778,23.7799767 72.8642773,21.1773877 73.2908449,17.441498 C73.8185248,12.8187691 77.744,6.99006506 93.0172268,7.29972155 C107.19507,7.58620646 104.460824,13.3475023 104.460824,13.3475023 L102.346945,17.7711663 L90.3293243,17.7048114 C90.3293243,17.7048114 91.5173941,15.6593934 91.7828139,13.4138572 C92.1788372,11.9614209 90.1176204,11.8518825 88.7431248,12.2910892 C87.09373,12.8187691 86.0899796,15.8026358 86.4986419,16.7158065 C87.3570434,18.6295678 98.1339316,20.3326785 98.7153275,24.1759999 C99.3757173,28.5343623 96.6688562,36.3263306 81.6115463,36.456934 C66.7469818,36.5885907 67.7433595,32.0332699 67.6117028,31.4402883 C67.4789929,30.8441469 69.9888956,25.1007564 69.9888956,25.1007564 Z M73.5667973,0.656852679 L69.2442455,12.5838936 L37.7393314,12.5838936 C31.6862844,13.5423541 28.8530329,25.4535963 28.8530329,25.4535963 L16.5089036,25.4535963 L20.879905,14.6956666 C26.691757,1.1666273 40.2839915,0.656852679 40.2839915,0.656852679 L73.5667973,0.656852679 Z M0,46.3426646 L4.32149849,34.4156237 L35.8274659,34.4156237 C41.8805129,33.4571631 44.7137644,21.545921 44.7137644,21.545921 L57.0568404,21.545921 L52.685839,32.3038507 C46.8750403,45.83289 33.2838591,46.3426646 33.2838591,46.3426646 L0,46.3426646 Z M42.9853756,20.5508072 L45.1571841,14.6431092 L61.1392504,14.6431092 L58.8937142,20.5508072 L42.9853756,20.5508072 Z M12.3423387,32.3037454 L14.5162536,26.3981539 L30.4972667,26.3981539 L28.2517305,32.3037454 L12.3423387,32.3037454 Z M262.014254,30.5274336 L274.450017,30.5274336 L271.901144,36.8185159 L259.463275,36.8185159 L262.014254,30.5274336 Z M265.124617,23.1341217 L262.433555,29.6653457 L274.806122,29.6653457 L277.468746,23.1341217 L265.124617,23.1341217 Z M268.343043,15.2665299 L280.692439,15.2665299 L277.799152,22.2885699 L265.48662,22.2885699 L268.343043,15.2665299 Z M271.545987,7.7734749 L283.813228,7.7734749 L281.115846,14.3784266 L268.729587,14.3784266 L271.545987,7.7734749 Z M274.084538,1.34336321 L286.352833,1.34336321 L284.112563,6.77709723 L271.844268,6.77709723 L274.084538,1.34336321 Z" id="Combined-Shape" fill="#0061AC"></path>
            <polygon id="Fill-34" fill="#F29300" points="62.1198292 46.3426646 274.69058 46.3426646 274.69058 39.9694286 62.1198292 39.9694286"></polygon>
        </g>
    </g>
</svg>